<?xml version="1.0" encoding="UTF-8"?>
<svg id="Layer_1" xmlns="http://www.w3.org/2000/svg" version="1.1" viewBox="0 0 1320 1000">
  <!-- Generator: Adobe Illustrator 29.6.1, SVG Export Plug-In . SVG Version: 2.1.1 Build 9)  -->
  <defs>
    <style>
      .st0 {
        fill: #d4af37;
      }
    </style>
  </defs>
  <g>
    <path class="st0" d="M260.9,452c-.3,5.1-9.5,1.7-7.8,8.2l23.3,67.8,16.5-54.5c-2.4-7.2-2.9-19.1-13-18.5v-3h29v3c-4.1-.2-9.8-.1-9,5.4l23.5,67.6,21.5-67.6c1-5.7-5.9-5.4-10-5.4v-3h27v3c-5.5-.4-11.2.3-13.5,6l-26.6,82.9h-4.8s-21.6-63.9-21.6-63.9l-22,64.1-3.4-.2-28.2-83.3c-1.9-5-5.9-6.2-10.9-5.6v-3h30Z"/>
    <path class="st0" d="M366.9,452h39.5c4.7,0,15.2,4,19.5,6.5,28.2,15.9,25.2,68.4-5.3,80.7-16.8,6.8-27.4,1-44.2,1.8-3,.1-7.3,2.9-9.5.5-.6-3.4,9.1-2.2,10-7v-72.1c.9-7.8-8.7-5.4-10-10.4ZM387.9,455v78.5c0,2.8,9,5.2,11.5,5.5,30.8,2.9,36.7-24.6,34.5-49.5-1.3-14.8-12.7-34.5-29.5-34.5h-16.5Z"/>
    <path class="st0" d="M795.9,559.5c1.4,8,9.3,4.8,10,5.5v2.9c-3.8-.3-22,9.6-23,4.5s2.7-5.2,3-7.9c3.2-25.7-2.5-57.7,0-84.1-.2-4.9-4.2-4.7-8.1-4.5v-3s18-5,18-5c.1,2.5-.2,5,0,7.5s-.8,2.9,1.5,2.5c3.1-3.4,8.6-7.9,13.2-8.8,53.2-9.7,45.4,90.6-4.7,73.2-3.9-1.3-6.4-4.2-10-5.5.8,6.8-1.1,16,0,22.5ZM816.4,471.6c-8.1-.1-16.1,5.4-20.3,12.2.4,11.8-1.3,25.1-.3,36.8,1.3,15.4,17.8,26.9,31.4,17.3,11.4-8.1,10.2-36.6,7-48.7s-7.3-17.4-17.8-17.6Z"/>
    <path class="st0" d="M1036.9,482c6.4-5.8,12.7-12.4,21.7-13.7,35.2-5.1,19.6,47.3,23.2,67.2s9.3,2,8,7.5c-3.6.4-6.9-.9-10.5-1s-8.2.8-12.2,1-3.1.3-4.3-1.4c-.9-1.9,4.8-2.2,6.5-3.5s2.2-1.9,2.5-3.5c-.8-14.3,1.2-29.9,0-44-2.1-27.1-22.5-20-34-3.9v48c.2,1.6,1.2,2.6,2.5,3.5s7.4,1.6,6.5,3.5c-1.2,1.8-2.5,1.5-4.3,1.4-4-.2-7.7-1.1-12.2-1s-6.9,1.4-10.5,1l.6-3.1c3.6-1.3,6.9-.9,7.5-5.4,2-16.9-1.6-37.7,0-55-.8-4.2-4.5-3.7-8-3.5v-3s16.4-5,16.4-5c3.5,1,.6,11.1.6,14Z"/>
    <path class="st0" d="M585.9,452l2,17c-4.1,1-3.5-3.3-5.6-5.9s-7.9-8.1-11.9-8.1h-23.5v40h23.5c2.8,0,7.2-6.9,6.5-10h3v23l-3.1-.6c-.8-5.3-3.7-9.4-9.4-9.4h-20.5v41h26.5c1.3,0,6.4-4.1,7.5-5.5s6-14.4,9-11.5l-3,20h-61v-3c3-.6,9.3-.8,10-4.5v-75.1c.2-6.8-9.6-1.9-10-7.4h60Z"/>
    <path class="st0" d="M774.9,536c3.4,3.3-13.3,8-15.5,8.1-6.6,0-1.9-9.1-2.5-13.1l-8.1,8.4c-10.4,8.6-33.1,5.8-35.7-9.2-4.2-24.7,25.3-29.2,42.8-33.8-1.1-10.5,4.6-26.9-11.4-25.3s-12.1,9.3-16.9,18.2-9.4,3.6-9.7-1.8c-1.1-17.5,45.3-31.7,48-4.9s-2.3,34.8.3,48.7.8,3.7,1.7,4.3l7,.5ZM755.9,500c-12.9,4-32.1,8.5-32.1,25.5,0,15.9,15.4,18.2,26,8.9s6.1-7.4,6.1-7.9v-26.5Z"/>
    <path class="st0" d="M979.7,468.3c44.7-2.2,43.6,79.9-1.3,75.7-38.1-3.5-38-73.8,1.3-75.7ZM976.7,471.3c-18.4,2.7-16.7,37.6-13.1,50.6,3.4,12.4,16.5,26.5,29.3,15.7,14.7-12.3,10.6-70.2-16.3-66.3Z"/>
    <path class="st0" d="M504.9,450v60c7.2,1.9,7.6-5.6,13-6-2.7,7.8-3,12.7-13,11l.2,21.3c.9,2.6,7.3,3.3,9.8,3.7v3c-10.4-1.2-20.6-1.2-31,0v-3s10-3.5,10-3.5v-21.5h-37v-4.4c0,0,43.5-58.6,43.5-58.6l4.5-2ZM493.9,510v-44l-33,44h33Z"/>
    <path class="st0" d="M1107.9,506c-1.6,15.8,7,39.5,26.8,34.3,8.1-2.1,9.5-10.2,12.2-11.8s5.7-1.5,5,1c-2.1,7.3-11.3,13.5-18.6,14.5-46.3,6.1-49.9-64.9-14.4-74.4,14.8-4,29.6,2.8,34.2,17.9s4.2,18.6-2.6,18.6h-42.5ZM1143.9,503c4.1-43.3-38.7-41.2-36,0h36Z"/>
    <path class="st0" d="M696.8,452.2l8.1,23.9c-7,1.5-7.9-7-11.6-11.9-6.9-9-17.6-12.6-28.8-11-29.1,4.1-26.7,76.2.9,86,11.1,4,24.6-.1,31.6-9.6s6-14.3,9-11.5c-5.8,30.2-43.5,34.4-62,12.5-16.3-19.3-15.5-55.9,4.5-72.5,15.2-12.6,30.6-7,48.4-5.8Z"/>
    <path class="st0" d="M895.1,469.3c.8-.5,1.9-.2,2.8-.3l1,18c-1.4,1.6-7.7-8.2-9.1-9.4-18-16.7-34.4,3-19.4,16.4s27.2,11.3,31.9,24c5.6,15.2-9.7,28.3-24.7,25.7s-10.3-5.6-16.1-3.6-1.1,4-4.6,2.8l-1-19h3.9c2.7,17.9,39.1,25.9,33.9.7-2.8-13.6-37.4-16.6-37.8-38.2s10.4-18.6,20.5-18.4,14.1,5.6,17.6,3.4.8-2,1.2-2.2Z"/>
    <path class="st0" d="M927.9,450v19h16.5l1.5,1.5-1.5,2.5h-16.5v61.5c0,6.2,14.2,5.9,17,.5.4,9.9-17.2,10.8-22.9,5.4s-4.1-7.1-4.1-7.9v-59.5h-8s0-4,0-4c10.5.9,13.8-10.4,14-19h4Z"/>
  </g>
  <g>
    <path class="st0" d="M319.1,596c2.3-.4,3.1,1.1,4.3,2.6,6.2,7.6,12,21.2,17,30l20.1-32.6c1-.7,3.7,1.2,3.7,1.9v37h-3.8v-30.1l-19.4,30.1-18.2-28.8v28.8h-3.8v-38.9Z"/>
    <path class="st0" d="M401.9,596c14.7-1.6,35.5,2,21.3,20,10.5.9,6.2,18.8-.6,18.8h-20.7v-38.9ZM422.9,612c2.8-2.8,1.2-10-2.2-11.6s-10.8,0-15.1-.6v13.8c4.1-.5,14.4,1.3,17.3-1.6ZM405.6,632.4c27.7,3.7,27.7-18.9,0-15.1v15.1Z"/>
    <path class="st0" d="M860.4,596.3c33.7-5.3,29.5,48.6-2.5,38.2-20.6-6.7-16.2-35.3,2.5-38.2ZM860.4,600.1c-19.7,4.1-14.5,35.7,6.9,32,21.1-3.7,15.8-36.7-6.9-32Z"/>
    <path class="st0" d="M655.1,596c19.4-4.2,40.6,10.3,18.8,25.7l8.8,13.1c-4,3.1-10-10.7-12.5-11.9-3.1-1.5-7.9-.3-11.3-.6v12.5s-3.8,0-3.8,0v-38.9ZM658.9,599.8v18.8c8.6-.1,20.2,2.2,20.2-9.4s-11.6-9.3-20.2-9.4Z"/>
    <path class="st0" d="M1043.4,596.3c28.5-4.5,30.9,37.4,5.8,39.8-25.4,2.4-30-35.9-5.8-39.8ZM1059.6,627c14.3-14.7-9.8-38.6-25.1-22-13.5,14.6,8.9,38.7,25.1,22Z"/>
    <path class="st0" d="M593.4,596.3c31.9-5,29,45.1.3,39.3-22.8-4.6-20.7-36-.3-39.3ZM593.3,600.1c-24.5,4.5-10.2,43.3,12,29.6,15.7-9.6,6.8-33-12-29.6Z"/>
    <path class="st0" d="M512.2,597.9c1.1-3.4,27.6-4.8,28.4,10.2.8,14-14.1,15.5-24.7,14.2v12.5s-3.8,0-3.8,0v-37ZM516,618.6c28.8,4.6,28.1-23.5,0-18.8v18.8Z"/>
    <path class="st0" d="M810.6,599.8h-21.3v15.1s12.5.6,12.5.6c.8,2.9-2.7,1.8-4.4,1.9-2.7.1-5.5,0-8.2,0v17.6h-3.8v-38.9h23.2l1.9,3.8Z"/>
    <path class="st0" d="M735.3,599.8v35.1h-3.8v-35.1h-12.5s0-3.8,0-3.8h28.2l1.9,1.9c-1.2,3.5-13.8,1.2-13.8,1.9Z"/>
    <polygon class="st0" points="925.9 632.4 946 632.4 946 634.9 922.1 634.9 922.1 596 925.9 597.9 925.9 632.4"/>
    <polygon class="st0" points="988.6 634.9 984.8 634.9 984.8 596 986.7 596.1 988.6 597.9 988.6 634.9"/>
  </g>
</svg>