<?xml version="1.0" encoding="UTF-8"?>
<svg id="Layer_1" xmlns="http://www.w3.org/2000/svg" version="1.1" viewBox="0 0 1320 1000">
  <!-- Generator: Adobe Illustrator 29.6.1, SVG Export Plug-In . SVG Version: 2.1.1 Build 9)  -->
  <defs>
    <style>
      .st0 {
        fill: #d4af37;
      }
    </style>
  </defs>
  <path class="st0" d="M783,324c-1.1-13.8-.3-17.2,14.4-14.9s18.7,11.2,12.6,16.4-8.6-.1-8,3.5c7.9,3.2,23.5,10.3,27.9,17.7s4.2,29.1,5.2,39.8c2.1,23.1,4.9,46.6,3,70-.4,4.5-2.6,16.9-7.1,18.9l-64.5.5c-12.9-5-20.3-9.8-35-9-37.7,2.2-69.2,6.8-108,4-14.2-1-36.3-6.6-49.3-3.3s-13.4,7-20.6,8.4h-62c-4.1-.9-6.8-9.9-7.4-13.7-4.1-26,.4-51.5,2.9-76.9,1.1-11.2-1-26.7,3.8-37.2,4.4-9.5,21.2-16.1,30.2-20.8-5.4-1.6-12.8.8-10.5-7.5s9.1-10.3,15-11c13.5-1.5,14.2,2.4,13.5,15l5.6-.9c14.6-24.1,24.9-47.8,56.2-51.8,1.3-.2,5.9-1.3,6.2.7-7.7,1.1-20.2,1.9-25.5,8s-2.6,2-1,3c13.3-6.2,28.5-8.6,43-10,29.4-2.7,68.6-2.4,97.5,3.5,7.5,1.5,14,3.4,21,6.5-1.2-1.8-3.3-4.3-5-5.4-9.6-6.2-43.2-9.1-55.4-9.6-19.8-.8-39.8.6-59.5,1l25.5-3c24.8.6,50.2.1,74.5,5.5s40.3,25.9,54.5,51.5l6.5,1ZM716,321l-43.5-3c-21,.4-43.2.1-64.1,3s-2.5,0-3.5,1.5c4,8.7,11.7,3.8,19.4,3.5,23.4-.9,46.7-1,70,0,5.2.2,11.7,1.3,17,2,2.1.4,5.1-6.5,4.5-7ZM621,359l-20.5-36c-3.9,7.2-9.5,8-17,9s-35,3.7-40.3,2.3-9.6-6-17.2-3.3c-1.2,1,6.9,8.4,8,9.5,9.7,9.3,20.6,17.4,30.5,26.5l1.5-.5-10-19.5c9.1,3.9,16.3,4.8,26,2.5s16.1-7.2,21.2-6.4,12.3,12.2,17.7,15.8ZM796,331c-2.7.7-5.9-1.1-8.3-.8s-7,3.4-9.9,4.1c-6.3,1.5-13.9-.8-20.3-1.3-8.8-.6-26,.2-32.5-5.5s-2.2-4.9-4.9-4.5l-21,38c5.8-4.7,11.5-17.1,19.7-17.8s14.6,5,20.2,6.3c9.7,2.3,17.9,1.1,27-2.5.5.4-5.5,9-6.2,10.3-1.2,2.4-3.3,6.9-3.3,9.7,7.7-6.6,16-12.7,23.5-19.5,3.4-3.1,12.1-10.5,14.5-13.5s1.9-1.3,1.5-3ZM553.9,382.8c2-3.3-10.6-20.7-13.3-23.8-9.6-11.1-34.3-29.4-33.6-1.5.2,6.3,3,12.4,4.1,18.5,1.9.2.8-2.1.7-3.2-.5-4.5-4.6-24.9,4.7-22.9s3,10.1,3.8,12.3c4.3,11.1,13.5,22.1,24.1,27.6l9.5-7.1ZM810.8,343.2c-20.9-1.5-35.9,20.8-43.4,37.8l10.1,8.7c14.4-8.4,24.1-23.4,27.1-39.7l4.3.2c3.2,8.5,1.9,14.4.6,22.9s-1.3,3.3.5,3c3.4-10.8,6.6-22.2.8-32.8ZM636.8,384.3c-16.7.6-36.7,1.7-53,5-20.3,4.1-24,8.1-18.3,28.7,2.6,9.3,10,28,18.8,32.2,8.4,4,36.9,7.2,47.2,7.8,25.9,1.5,77.4,1.2,101.5-6.5,11.6-3.7,16.1-15.3,20-26,7.8-21.6,9.9-30.7-15-36.1-29.3-6.3-71-6.3-101.2-5.2ZM550,420c.3-5.9-7.4-7.1-12-8.5-9.7-3-19.9-4.2-30-5.1l-2,1.2c-1.7,6.4,8.6,30.3,13.5,35.3s16.9,7.6,23.9,11.1c2-1.7.4-1.6-.9-2.1-10.1-4-18.7-4.7-24.8-15.2s-6.7-15.9-2.1-18.8,26.6,1.8,34.3,2.1ZM784,451c12.9-2.3,19.3-8.2,24.7-19.8,1.8-3.8,8.8-22.3,5.3-24.8-8.8.5-17.6,1.6-26.2,3.9s-20.9,5.9-16.8,9.7c22.1-3.4,50.6-11,29,21.5l-16,9.5Z"/>
  <path class="st0" d="M228,538c-.3,5.1-9.5,1.7-7.8,8.2l23.3,67.8,16.5-54.5c-2.4-7.2-2.9-19.1-13-18.5v-3h29v3c-4.1-.2-9.8-.1-9,5.4l23.5,67.6,21.5-67.6c1-5.7-5.9-5.4-10-5.4v-3h27v3c-5.5-.4-11.2.3-13.5,6l-26.6,82.9h-4.8s-21.6-63.9-21.6-63.9l-22,64.1-3.4-.2-28.2-83.3c-1.9-5-5.9-6.2-10.9-5.6v-3h30Z"/>
  <path class="st0" d="M334,538h39.5c4.7,0,15.2,4,19.5,6.5,28.2,15.9,25.2,68.4-5.3,80.7-16.8,6.8-27.4,1-44.2,1.8-3,.1-7.3,2.9-9.5.5-.6-3.4,9.1-2.2,10-7v-72.1c.9-7.8-8.7-5.4-10-10.4ZM355,541v78.5c0,2.8,9,5.2,11.5,5.5,30.8,2.9,36.7-24.6,34.5-49.5-1.3-14.8-12.7-34.5-29.5-34.5h-16.5Z"/>
  <path class="st0" d="M763,645.5c1.4,8,9.3,4.8,10,5.5v2.9c-3.8-.3-22,9.6-23,4.5s2.7-5.2,3-7.9c3.2-25.7-2.5-57.7,0-84.1-.2-4.9-4.2-4.7-8.1-4.5v-3s18-5,18-5c.1,2.5-.2,5,0,7.5s-.8,2.9,1.5,2.5c3.1-3.4,8.6-7.9,13.2-8.8,53.2-9.7,45.4,90.6-4.7,73.2-3.9-1.3-6.4-4.2-10-5.5.8,6.8-1.1,16,0,22.5ZM783.5,557.6c-8.1-.1-16.1,5.4-20.3,12.2.4,11.8-1.3,25.1-.3,36.8,1.3,15.4,17.8,26.9,31.4,17.3,11.4-8.1,10.2-36.6,7-48.7s-7.3-17.4-17.8-17.6Z"/>
  <path class="st0" d="M1004,568c6.4-5.8,12.7-12.4,21.7-13.7,35.2-5.1,19.6,47.3,23.2,67.2s9.3,2,8,7.5c-3.6.4-6.9-.9-10.5-1s-8.2.8-12.2,1-3.1.3-4.3-1.4c-.9-1.9,4.8-2.2,6.5-3.5s2.2-1.9,2.5-3.5c-.8-14.3,1.2-29.9,0-44-2.1-27.1-22.5-20-34-3.9v48c.2,1.6,1.2,2.6,2.5,3.5s7.4,1.6,6.5,3.5c-1.2,1.8-2.5,1.5-4.3,1.4-4-.2-7.7-1.1-12.2-1s-6.9,1.4-10.5,1l.6-3.1c3.6-1.3,6.9-.9,7.5-5.4,2-16.9-1.6-37.7,0-55-.8-4.2-4.5-3.7-8-3.5v-3s16.4-5,16.4-5c3.5,1,.6,11.1.6,14Z"/>
  <path class="st0" d="M553,538l2,17c-4.1,1-3.5-3.3-5.6-5.9s-7.9-8.1-11.9-8.1h-23.5v40h23.5c2.8,0,7.2-6.9,6.5-10h3v23l-3.1-.6c-.8-5.3-3.7-9.4-9.4-9.4h-20.5v41h26.5c1.3,0,6.4-4.1,7.5-5.5s6-14.4,9-11.5l-3,20h-61v-3c3-.6,9.3-.8,10-4.5v-75.1c.2-6.8-9.6-1.9-10-7.4h60Z"/>
  <path class="st0" d="M742,622c3.4,3.3-13.3,8-15.5,8.1-6.6,0-1.9-9.1-2.5-13.1l-8.1,8.4c-10.4,8.6-33.1,5.8-35.7-9.2-4.2-24.7,25.3-29.2,42.8-33.8-1.1-10.5,4.6-26.9-11.4-25.3s-12.1,9.3-16.9,18.2-9.4,3.6-9.7-1.8c-1.1-17.5,45.3-31.7,48-4.9s-2.3,34.8.3,48.7.8,3.7,1.7,4.3l7,.5ZM723,586c-12.9,4-32.1,8.5-32.1,25.5,0,15.9,15.4,18.2,26,8.9s6.1-7.4,6.1-7.9v-26.5Z"/>
  <path class="st0" d="M946.8,554.2c44.7-2.2,43.6,79.9-1.3,75.7-38.1-3.5-38-73.8,1.3-75.7ZM943.8,557.2c-18.4,2.7-16.7,37.6-13.1,50.6,3.4,12.4,16.5,26.5,29.3,15.7,14.7-12.3,10.6-70.2-16.3-66.3Z"/>
  <path class="st0" d="M472,536v60c7.2,1.9,7.6-5.6,13-6-2.7,7.8-3,12.7-13,11l.2,21.3c.9,2.6,7.3,3.3,9.8,3.7v3c-10.4-1.2-20.6-1.2-31,0v-3s10-3.5,10-3.5v-21.5h-37v-4.4c0,0,43.5-58.6,43.5-58.6l4.5-2ZM461,596v-44l-33,44h33Z"/>
  <path class="st0" d="M1075,592c-1.6,15.8,7,39.5,26.8,34.3,8.1-2.1,9.5-10.2,12.2-11.8s5.7-1.5,5,1c-2.1,7.3-11.3,13.5-18.6,14.5-46.3,6.1-49.9-64.9-14.4-74.4,14.8-4,29.6,2.8,34.2,17.9s4.2,18.6-2.6,18.6h-42.5ZM1111,589c4.1-43.3-38.7-41.2-36,0h36Z"/>
  <path class="st0" d="M663.9,538.1l8.1,23.9c-7,1.5-7.9-7-11.6-11.9-6.9-9-17.6-12.6-28.8-11-29.1,4.1-26.7,76.2.9,86,11.1,4,24.6-.1,31.6-9.6s6-14.3,9-11.5c-5.8,30.2-43.5,34.4-62,12.5-16.3-19.3-15.5-55.9,4.5-72.5,15.2-12.6,30.6-7,48.4-5.8Z"/>
  <path class="st0" d="M862.2,555.3c.8-.5,1.9-.2,2.8-.3l1,18c-1.4,1.6-7.7-8.2-9.1-9.4-18-16.7-34.4,3-19.4,16.4s27.2,11.3,31.9,24c5.6,15.2-9.7,28.3-24.7,25.7s-10.3-5.6-16.1-3.6-1.1,4-4.6,2.8l-1-19h3.9c2.7,17.9,39.1,25.9,33.9.7-2.8-13.6-37.4-16.6-37.8-38.2s10.4-18.6,20.5-18.4,14.1,5.6,17.6,3.4.8-2,1.2-2.2Z"/>
  <path class="st0" d="M757,478l-7.6,1.9c-61.7,5-123.9,5.7-185.4-1.4,12.8-1,25.7-.9,38.5-1.5,47.6-2.1,89.5-.9,137,1.1s11.7-.3,17.5,0Z"/>
  <path class="st0" d="M895,536v19h16.5l1.5,1.5-1.5,2.5h-16.5v61.5c0,6.2,14.2,5.9,17,.5.4,9.9-17.2,10.8-22.9,5.4s-4.1-7.1-4.1-7.9v-59.5h-8s0-4,0-4c10.5.9,13.8-10.4,14-19h4Z"/>
  <path class="st0" d="M362,686c1.8-.3,2.5.9,3.4,2.1,4.9,6.1,9.6,16.9,13.6,23.9l16-26c.8-.6,3,1,3,1.5v29.5h-3v-24l-15.5,24-14.5-23v23h-3v-31Z"/>
  <path class="st0" d="M428,686c11.7-1.3,28.3,1.6,17,16,8.4.7,4.9,15-.5,15h-16.5v-31ZM444.8,698.8c2.3-2.3,1-8-1.8-9.3s-8.6,0-12-.5v11c3.3-.4,11.5,1,13.8-1.2ZM431,715c22.1,2.9,22.1-15,0-12v12Z"/>
  <path class="st0" d="M793.7,686.2c26.9-4.3,23.5,38.8-2,30.5s-12.9-28.1,2-30.5ZM793.7,689.2c-15.7,3.2-11.5,28.5,5.5,25.5s12.6-29.3-5.5-25.5Z"/>
  <path class="st0" d="M630,686c15.5-3.4,32.4,8.2,15,20.5l7,10.5c-3.2,2.5-8-8.5-10-9.5s-6.3-.2-9-.5v10s-3,0-3,0v-31ZM633,689v15c6.8-.1,16.1,1.7,16.1-7.5s-9.3-7.4-16.1-7.5Z"/>
  <path class="st0" d="M939.7,686.2c22.7-3.6,24.7,29.8,4.6,31.7-20.3,1.9-23.9-28.7-4.6-31.7ZM952.7,710.7c11.4-11.7-7.8-30.8-20.1-17.6-10.8,11.7,7.1,30.9,20.1,17.6Z"/>
  <path class="st0" d="M580.7,686.2c25.4-4,23.1,36,.2,31.3-18.1-3.7-16.5-28.8-.2-31.3ZM580.7,689.2c-19.5,3.6-8.2,34.5,9.6,23.6,12.5-7.7,5.4-26.3-9.6-23.6Z"/>
  <path class="st0" d="M516,687.5c.8-2.7,22-3.8,22.7,8.1.6,11.2-11.2,12.4-19.7,11.4v10s-3,0-3,0v-29.5ZM519,704c23,3.7,22.4-18.7,0-15v15Z"/>
  <path class="st0" d="M754,689h-17v12s10,.5,10,.5c.7,2.3-2.1,1.4-3.5,1.5-2.2.1-4.4,0-6.5,0v14h-3v-31h18.5l1.5,3Z"/>
  <path class="st0" d="M694,689v28h-3v-28h-10s0-3,0-3h22.5l1.5,1.5c-1,2.8-11,.9-11,1.5Z"/>
  <polygon class="st0" points="846 715 862 715 862 717 843 717 843 686 846 687.5 846 715"/>
  <polygon class="st0" points="896 717 893 717 893 686 894.5 686 896 687.5 896 717"/>
  <path class="st0" d="M647.8,386.3l20.7-.3c17.2,1.8,34.7,1.1,52,3,7.3.8,32,3.9,35,11s-9.6,42.2-17.8,47.2c-6.2,3.7-24.5,5.8-32.3,6.7-30.7,3.5-66.1,3.3-96.7-1-21.6-3-28.7-3.4-37.4-24.6-3.6-8.8-11.1-27.3-.5-33,13.8-7.4,60-8.6,77.1-8.9ZM747,398c-6.8-1-14,.9-20.5,1-43.7,1.2-87.4,1.2-131.1,0-2,0-21.5-2.5-21.5-.5,53.3,9.3,108.6,8.1,162.2,2.2l10.8-2.7ZM748,414c-50.3,4.5-101.1,5.5-151.5,2-1.9-.1-22.5-3.4-22.5-1.5,54.4,11.3,114.5,11.8,169.2,1.2,1.3-.3,4.8-.1,4.8-1.7ZM743,430c-19.3,3.5-38.9,4.2-58.5,5s-3.8,1-6,1c-33,1-65.6-1.9-98.1-6s-1.4.2-1.4,1.9c9.9,1.7,19.7,4.5,29.6,5.9,32.6,4.5,71.1,4.6,103.7,0s19.6-3.1,27.3-5.7,3.1-.3,3.4-2.1Z"/>
</svg>